<svg width="22" height="22" viewBox="0 0 22 22" fill="none" xmlns="http://www.w3.org/2000/svg">
<path d="M22 11.0674C22 4.95416 17.0748 -0.00134277 11 -0.00134277C4.9225 3.22267e-05 -0.00274658 4.95416 -0.00274658 11.0688C-0.00274658 16.5922 4.0205 21.1709 9.2785 22.0014V14.267H6.48725V11.0688H9.28125V8.62816C9.28125 5.85478 10.9244 4.32303 13.4365 4.32303C14.641 4.32303 15.8991 4.53891 15.8991 4.53891V7.26141H14.5118C13.1464 7.26141 12.7201 8.11528 12.7201 8.99116V11.0674H15.7699L15.2831 14.2657H12.7188V22C17.9768 21.1695 22 16.5908 22 11.0674Z" fill="#CF5100"/>
</svg>
