<svg width="22" height="22" viewBox="0 0 22 22" fill="none" xmlns="http://www.w3.org/2000/svg">
<path d="M18.7014 3.19832C17.6928 2.18037 16.4917 1.37334 15.168 0.82425C13.8444 0.275158 12.4247 -0.00501088 10.9917 6.78295e-05C4.98712 6.78295e-05 0.0935 4.89232 0.088 10.8983C0.088 12.8219 0.59125 14.6933 1.54138 16.3502L0 22.0001L5.7805 20.4848C7.37963 21.3551 9.17115 21.8112 10.9917 21.8117H10.9973C17.0033 21.8117 21.8955 16.9194 21.901 10.9079C21.9024 9.47525 21.6202 8.05645 21.0709 6.73328C20.5215 5.4101 19.7171 4.20871 18.7014 3.19832ZM10.9917 19.9664C9.36787 19.967 7.77384 19.53 6.37725 18.7014L6.04725 18.5034L2.618 19.4027L3.53375 16.0573L3.31925 15.7122C2.41148 14.2689 1.93139 12.5979 1.93462 10.8928C1.93462 5.90707 6.0005 1.83982 10.9973 1.83982C12.1876 1.83768 13.3667 2.0712 14.4664 2.52689C15.5661 2.98259 16.5648 3.65146 17.4048 4.49494C18.2477 5.33513 18.9159 6.3339 19.3709 7.43364C19.8259 8.53337 20.0587 9.71231 20.0557 10.9024C20.0503 15.9061 15.9844 19.9664 10.9917 19.9664ZM15.9624 13.1822C15.6915 13.0461 14.3536 12.3874 14.102 12.2939C13.8517 12.2046 13.6689 12.1578 13.4901 12.4301C13.3073 12.7009 12.7847 13.3183 12.628 13.4957C12.4712 13.6786 12.309 13.6992 12.0367 13.5644C11.7659 13.4269 10.8872 13.1409 9.84775 12.2101C9.0365 11.4882 8.49337 10.5944 8.33113 10.3236C8.17437 10.0513 8.316 9.90557 8.45212 9.76944C8.57175 9.64844 8.723 9.45044 8.85913 9.29369C8.99662 9.13694 9.042 9.02144 9.13137 8.83994C9.22075 8.65569 9.17812 8.49894 9.11075 8.36282C9.042 8.22669 8.49887 6.88332 8.26925 6.34157C8.04925 5.80669 7.82512 5.88094 7.65737 5.87407C7.50062 5.86444 7.31775 5.86444 7.13488 5.86444C6.99678 5.86788 6.86088 5.89982 6.7357 5.95826C6.61053 6.01671 6.49879 6.10039 6.4075 6.20407C6.15725 6.47632 5.45738 7.13494 5.45738 8.47832C5.45738 9.82169 6.43362 11.1128 6.57112 11.2957C6.70587 11.4786 8.48787 14.2272 11.2227 15.4097C11.869 15.6916 12.3778 15.8579 12.7751 15.9844C13.4283 16.1934 14.0181 16.1618 14.4884 16.0944C15.0109 16.0147 16.0985 15.4344 16.3281 14.7978C16.5536 14.1598 16.5536 13.6153 16.4849 13.5012C16.4175 13.3857 16.2346 13.3183 15.9624 13.1822Z" fill="#CF5100"/>
</svg>
